<svg width="27" height="27" viewBox="0 0 27 27" fill="none" xmlns="http://www.w3.org/2000/svg">
<path fill-rule="evenodd" clip-rule="evenodd" d="M13.5 1.68749C11.7098 1.68749 9.9929 2.39865 8.72703 3.66452C7.46116 4.93039 6.75 6.64728 6.75 8.43749C6.75 10.2277 7.46116 11.9446 8.72703 13.2105C9.9929 14.4763 11.7098 15.1875 13.5 15.1875C15.2902 15.1875 17.0071 14.4763 18.273 13.2105C19.5388 11.9446 20.25 10.2277 20.25 8.43749C20.25 6.64728 19.5388 4.93039 18.273 3.66452C17.0071 2.39865 15.2902 1.68749 13.5 1.68749ZM5.0625 8.43749C5.06252 6.80469 5.5363 5.20697 6.42638 3.8381C7.31647 2.46923 8.58461 1.38803 10.077 0.725624C11.5694 0.0632153 13.2219 -0.15194 14.8342 0.106252C16.4465 0.364444 17.9492 1.08489 19.1601 2.18021C20.371 3.27554 21.2381 4.69868 21.6562 6.27705C22.0743 7.85541 22.0254 9.52118 21.5156 11.0723C21.0057 12.6235 20.0567 13.9934 18.7837 15.0159C17.5107 16.0384 15.9684 16.6695 14.3438 16.8328V20.25H17.7188C17.9425 20.25 18.1571 20.3389 18.3154 20.4971C18.4736 20.6554 18.5625 20.87 18.5625 21.0937C18.5625 21.3175 18.4736 21.5321 18.3154 21.6904C18.1571 21.8486 17.9425 21.9375 17.7188 21.9375H14.3438V26.1562C14.3438 26.38 14.2549 26.5946 14.0966 26.7529C13.9384 26.9111 13.7238 27 13.5 27C13.2762 27 13.0616 26.9111 12.9034 26.7529C12.7451 26.5946 12.6562 26.38 12.6562 26.1562V21.9375H9.28125C9.05747 21.9375 8.84286 21.8486 8.68463 21.6904C8.5264 21.5321 8.4375 21.3175 8.4375 21.0937C8.4375 20.87 8.5264 20.6554 8.68463 20.4971C8.84286 20.3389 9.05747 20.25 9.28125 20.25H12.6562V16.8328C10.575 16.6236 8.6457 15.6489 7.24255 14.0976C5.8394 12.5463 5.06247 10.5292 5.0625 8.43749Z" fill="#F078D6"/>
</svg>
