<svg width="36" height="36" viewBox="0 0 36 36" fill="none" xmlns="http://www.w3.org/2000/svg">
<path d="M32.7083 15.0623H31.5V15H18V21H26.4773C25.2405 24.4928 21.9172 27 18 27C13.0297 27 9 22.9702 9 18C9 13.0297 13.0297 9 18 9C20.2943 9 22.3815 9.8655 23.9708 11.2792L28.2135 7.0365C25.5345 4.53975 21.951 3 18 3C9.71625 3 3 9.71625 3 18C3 26.2838 9.71625 33 18 33C26.2838 33 33 26.2838 33 18C33 16.9943 32.8965 16.0125 32.7083 15.0623Z" fill="#FFC107"/>
<path d="M4.72949 11.0183L9.65774 14.6325C10.9912 11.331 14.2207 9 18 9C20.2942 9 22.3815 9.8655 23.9707 11.2793L28.2135 7.0365C25.5345 4.53975 21.951 3 18 3C12.2385 3 7.24199 6.25275 4.72949 11.0183Z" fill="#FF3D00"/>
<path d="M18 33C21.8745 33 25.395 31.5173 28.0567 29.106L23.4142 25.1775C21.8576 26.3613 19.9556 27.0016 18 27C14.0985 27 10.7857 24.5123 9.53774 21.0405L4.64624 24.8093C7.12874 29.667 12.1702 33 18 33Z" fill="#4CAF50"/>
<path d="M32.7083 15.0623H31.5V15H18V21H26.4773C25.8857 22.6623 24.82 24.1149 23.412 25.1782L23.4142 25.1768L28.0568 29.1052C27.7283 29.4037 33 25.5 33 18C33 16.9943 32.8965 16.0125 32.7083 15.0623Z" fill="#1976D2"/>
</svg>
