<svg width="23" height="23" viewBox="0 0 23 23" fill="none" xmlns="http://www.w3.org/2000/svg">
<path fill-rule="evenodd" clip-rule="evenodd" d="M13.6562 2.875C13.4656 2.875 13.2828 2.79927 13.148 2.66448C13.0132 2.52969 12.9375 2.34687 12.9375 2.15625C12.9375 1.96563 13.0132 1.78281 13.148 1.64802C13.2828 1.51323 13.4656 1.4375 13.6562 1.4375H20.8437C21.0343 1.4375 21.2172 1.51323 21.352 1.64802C21.4867 1.78281 21.5625 1.96563 21.5625 2.15625V9.34375C21.5625 9.53437 21.4867 9.71719 21.352 9.85198C21.2172 9.98677 21.0343 10.0625 20.8437 10.0625C20.6531 10.0625 20.4703 9.98677 20.3355 9.85198C20.2007 9.71719 20.125 9.53437 20.125 9.34375V3.89131L14.1895 9.82675C15.3565 11.2545 15.9301 13.0761 15.7917 14.9148C15.6534 16.7536 14.8136 18.4688 13.4461 19.7058C12.0786 20.9428 10.288 21.6069 8.44457 21.5607C6.60119 21.5145 4.84606 20.7617 3.54218 19.4578C2.23831 18.1539 1.48543 16.3988 1.43927 14.5554C1.3931 12.712 2.05718 10.9214 3.29416 9.55389C4.53113 8.18639 6.24638 7.3466 8.08514 7.20822C9.9239 7.06985 11.7455 7.64346 13.1732 8.81044L19.1087 2.875H13.6562ZM8.62497 8.625C7.09998 8.625 5.63744 9.2308 4.55911 10.3091C3.48077 11.3875 2.87497 12.85 2.87497 14.375C2.87497 15.9 3.48077 17.3625 4.55911 18.4409C5.63744 19.5192 7.09998 20.125 8.62497 20.125C10.15 20.125 11.6125 19.5192 12.6908 18.4409C13.7692 17.3625 14.375 15.9 14.375 14.375C14.375 12.85 13.7692 11.3875 12.6908 10.3091C11.6125 9.2308 10.15 8.625 8.62497 8.625Z" fill="#5CA1E5"/>
</svg>
