<svg width="24" height="24" viewBox="0 0 24 24" fill="none" xmlns="http://www.w3.org/2000/svg">
<g clip-path="url(#clip0)">
<path d="M13.447 20.905C13.6126 20.8238 13.7521 20.6979 13.8499 20.5415C13.9476 20.3851 13.9996 20.2044 14 20.02V14.7C14 14.438 14.105 14.186 14.293 14L20.414 7.946C20.789 7.575 21 7.071 21 6.546V3.99C20.9995 3.8593 20.9732 3.72998 20.9226 3.60945C20.8721 3.48892 20.7982 3.37955 20.7053 3.28759C20.6124 3.19564 20.5023 3.1229 20.3813 3.07355C20.2603 3.0242 20.1307 2.99921 20 3H4C3.447 3 3 3.442 3 3.99V6.546C3 7.071 3.211 7.575 3.586 7.946L9.707 14C9.79974 14.0915 9.8734 14.2005 9.92369 14.3206C9.97399 14.4408 9.99993 14.5697 10 14.7V21.01C10 21.745 10.782 22.223 11.447 21.894L13.447 20.905Z" fill="#F9645D"/>
</g>
<defs>
<clipPath id="clip0">
<rect width="24" height="24" fill="white"/>
</clipPath>
</defs>
</svg>
