<svg width="37" height="37" viewBox="0 0 37 37" fill="none" xmlns="http://www.w3.org/2000/svg">
<path d="M26.4437 23.2704H24.7724L24.1801 22.6993C26.2533 20.2876 27.5014 17.1567 27.5014 13.7507C27.5014 6.15609 21.3453 0 13.7507 0C6.15609 0 0 6.15609 0 13.7507C0 21.3453 6.15609 27.5014 13.7507 27.5014C17.1567 27.5014 20.2876 26.2533 22.6993 24.1801L23.2704 24.7724V26.4437L33.8479 37L37 33.8479L26.4437 23.2704ZM13.7507 23.2704C8.48313 23.2704 4.23099 19.0183 4.23099 13.7507C4.23099 8.48313 8.48313 4.23099 13.7507 4.23099C19.0183 4.23099 23.2704 8.48313 23.2704 13.7507C23.2704 19.0183 19.0183 23.2704 13.7507 23.2704Z" fill="white"/>
</svg>
